<?xml version="1.0" encoding="UTF-8" standalone="no"?>
<!-- Created with Inkscape (http://www.inkscape.org/) -->

<svg
   width="256mm"
   height="256mm"
   viewBox="0 0 256 256"
   version="1.1"
   id="svg1"
   inkscape:export-filename="logo.svg"
   inkscape:export-xdpi="96"
   inkscape:export-ydpi="96"
   xmlns:inkscape="http://www.inkscape.org/namespaces/inkscape"
   xmlns:sodipodi="http://sodipodi.sourceforge.net/DTD/sodipodi-0.dtd"
   xmlns="http://www.w3.org/2000/svg"
   xmlns:svg="http://www.w3.org/2000/svg">
  <sodipodi:namedview
     id="namedview1"
     pagecolor="#ffffff"
     bordercolor="#000000"
     borderopacity="0.25"
     inkscape:showpageshadow="2"
     inkscape:pageopacity="0.0"
     inkscape:pagecheckerboard="0"
     inkscape:deskcolor="#d1d1d1"
     inkscape:document-units="mm"
     inkscape:export-bgcolor="#ffffffce">
    <inkscape:page
       x="0"
       y="0"
       width="256"
       height="256"
       id="page2"
       margin="0"
       bleed="0" />
  </sodipodi:namedview>
  <defs
     id="defs1" />
  <g
     inkscape:label="Layer 1"
     inkscape:groupmode="layer"
     id="layer1">
    <g
       id="SVGRepo_iconCarrier"
       transform="matrix(0.26458333,0,0,0.26458333,17.978125,50.8)">    <g
   id="g1"
   transform="matrix(-0.58922318,-0.34018816,0.34018816,-0.58922318,751.32593,256.85881)">
  <path
     style="fill:#ff7800"
     d="m 383.471,504.396 c 19.154,0 34.68,-15.526 34.68,-34.681 0,-1.194 -40.039,-338.235 -40.039,-338.235 h 0.056 V 42.075 c 0,-19.037 -15.434,-34.471 -34.471,-34.471 H 168.361 c -19.037,0 -34.471,15.434 -34.471,34.471 v 89.404 c 0,0 -40.039,337.042 -40.039,338.235 0,19.155 15.526,34.681 34.68,34.681 h 254.94 z"
     id="path1" />
  <path
     style="fill:#c9d6d6"
     d="M 378.166,131.48 V 42.075 c 0,-19.037 -15.434,-34.471 -34.471,-34.471 H 168.361 c -19.037,0 -34.471,15.434 -34.471,34.471 v 89.404 h 244.276 z"
     id="path2" />
  <g
     id="g5"> <path
   style="fill:#ffbe6f"
   d="m 182.609,449.924 c -0.422,8.056 -7.296,14.246 -15.352,13.823 v 0 c -8.056,-0.422 -14.246,-7.296 -13.823,-15.352 l 12.692,-242.167 c 0.422,-8.056 7.296,-14.246 15.352,-13.823 v 0 c 8.056,0.422 14.246,7.296 13.823,15.352 z"
   id="path3" />
 <path
   style="fill:#ffbe6f"
   d="m 270.608,449.326 c 0,8.067 -6.54,14.608 -14.608,14.608 v 0 c -8.067,0 -14.608,-6.54 -14.608,-14.608 V 206.827 c 0,-8.067 6.54,-14.608 14.608,-14.608 v 0 c 8.067,0 14.608,6.54 14.608,14.608 z"
   id="path4" />
 <path
   style="fill:#ffbe6f"
   d="m 358.567,448.395 c 0.422,8.056 -5.767,14.93 -13.823,15.352 v 0 c -8.056,0.422 -14.93,-5.767 -15.352,-13.823 L 316.7,207.757 c -0.422,-8.056 5.767,-14.93 13.823,-15.352 v 0 c 8.056,-0.422 14.93,5.767 15.352,13.823 z"
   id="path5" />
 </g>
  <g
     id="g14"> <path
   style="fill:#311363"
   d="M 385.77,131.496 V 42.075 C 385.77,18.875 366.895,0 343.695,0 H 168.361 c -23.2,0 -42.075,18.875 -42.075,42.075 v 88.954 C 86.244,468.086 86.246,469.1 86.246,469.714 c 0,23.317 18.968,42.285 42.284,42.285 h 47.376 V 496.791 H 128.53 c -14.812,0 -26.886,-11.955 -27.074,-26.723 1.077,-9.927 25.544,-216.132 39.188,-330.985 h 35.262 v -15.208 h -34.411 v -81.8 c 0,-14.815 12.053,-26.867 26.867,-26.867 h 175.335 c 14.815,0 26.867,12.053 26.867,26.867 v 81.8 h -1.012 -173.37 v 15.208 h 175.175 c 0.583,4.911 1.186,9.986 1.806,15.208 h -94.308 v 15.208 h 96.114 c 13.942,117.408 34.588,291.469 35.575,300.569 -0.189,14.768 -12.262,26.723 -27.073,26.723 H 196.182 V 512 h 187.289 c 23.316,0 42.284,-18.968 42.284,-42.285 0,-0.614 -10e-4,-1.655 -39.985,-338.219 z"
   id="path6" />
 <rect
   x="202.772"
   y="39.813999"
   style="fill:#311363"
   width="15.208"
   height="20.035999"
   id="rect6" />
 <rect
   x="248.42599"
   y="39.813999"
   style="fill:#311363"
   width="15.208"
   height="20.035999"
   id="rect7" />
 <rect
   x="294.08099"
   y="39.813999"
   style="fill:#311363"
   width="15.208"
   height="20.035999"
   id="rect8" />
 <rect
   x="225.59399"
   y="79.233002"
   style="fill:#311363"
   width="15.208"
   height="20.035999"
   id="rect9" />
 <rect
   x="271.24899"
   y="79.233002"
   style="fill:#311363"
   width="15.208"
   height="20.035999"
   id="rect10" />
 <rect
   x="316.90302"
   y="79.233002"
   style="fill:#311363"
   width="15.208"
   height="20.035999"
   id="rect11" />
 <rect
   x="179.94"
   y="79.233002"
   style="fill:#311363"
   width="15.208"
   height="20.035999"
   id="rect12" />
 <path
   style="fill:#311363"
   d="m 181.875,184.812 c -12.327,-0.644 -22.704,8.826 -23.342,21.018 l -12.694,242.168 c -0.64,12.23 8.789,22.702 21.019,23.343 0.394,0.021 0.785,0.03 1.175,0.03 11.813,0 21.55,-9.246 22.167,-21.05 l 12.694,-242.168 c 0.64,-12.228 -8.789,-22.701 -21.019,-23.341 z m 5.832,22.547 -12.694,242.168 c -0.201,3.848 -3.472,6.837 -7.36,6.628 -3.857,-0.202 -6.829,-3.504 -6.629,-7.361 l 12.694,-242.168 c 0.194,-3.722 3.261,-6.637 6.98,-6.637 0.126,0 0.252,0.003 0.379,0.01 3.857,0.201 6.831,3.503 6.63,7.36 z"
   id="path12" />
 <path
   style="fill:#311363"
   d="M 278.212,449.326 V 206.827 c 0,-12.247 -9.964,-22.212 -22.212,-22.212 -12.247,0 -22.212,9.964 -22.212,22.212 v 242.5 c 0,12.247 9.964,22.212 22.212,22.212 12.247,0 22.212,-9.965 22.212,-22.213 z m -29.216,0 V 206.827 c 0,-3.862 3.142,-7.004 7.004,-7.004 3.862,0 7.004,3.142 7.004,7.004 v 242.5 c 0,3.862 -3.142,7.004 -7.004,7.004 -3.862,0 -7.004,-3.143 -7.004,-7.005 z"
   id="path13" />
 <path
   style="fill:#311363"
   d="m 343.967,471.372 c 0.389,0 0.782,-0.01 1.175,-0.03 12.23,-0.641 21.659,-11.113 21.019,-23.343 L 353.467,205.832 c -0.638,-12.193 -10.994,-21.672 -23.342,-21.019 -12.23,0.641 -21.659,11.113 -21.019,23.343 L 321.8,450.322 c 0.617,11.804 10.353,21.05 22.167,21.05 z M 330.921,199.998 c 0.127,-0.007 0.253,-0.01 0.379,-0.01 3.72,0 6.786,2.915 6.98,6.638 l 12.694,242.167 c 0.201,3.857 -2.772,7.159 -6.629,7.361 -3.868,0.213 -7.16,-2.78 -7.36,-6.628 L 324.291,207.359 c -0.199,-3.857 2.775,-7.159 6.63,-7.361 z"
   id="path14" />
 </g>
</g>
 <g
   id="SVGRepo_bgCarrier-5"
   stroke-width="0"
   transform="matrix(26.579024,0,0,26.579024,9.9908577,380.61926)" />
<g
   id="SVGRepo_tracerCarrier-3"
   stroke-linecap="round"
   stroke-linejoin="round"
   transform="matrix(26.579024,0,0,26.579024,9.9908577,380.61926)" />
<g
   id="SVGRepo_iconCarrier-5"
   transform="matrix(38.867238,0,0,38.867238,72.349347,103.3015)">
  <path
     fill="#000000"
     d="M 7.983,8.37 C 7.93,8.443 7.885,8.503 7.842,8.564 L 5.775,11.5 c -0.64,0.91 -1.282,1.82 -1.924,2.73 A 0.128,0.128 0 0 1 3.759,14.281 C 2.853,14.274 1.946,14.264 1.04,14.253 1.03,14.253 1.02,14.25 1,14.247 A 0.455,0.455 0 0 1 1.025,14.194 13977.496,13977.496 0 0 1 6.471,6.048 C 6.563,5.91 6.659,5.775 6.746,5.635 A 0.165,0.165 0 0 0 6.764,5.511 C 6.597,4.996 6.426,4.481 6.256,3.968 6.183,3.748 6.106,3.528 6.038,3.308 6.016,3.236 5.979,3.214 5.904,3.215 5.334,3.217 4.768,3.216 4.2,3.216 c -0.108,0 -0.108,0 -0.108,-0.103 0,-0.674 0,-1.347 -0.002,-2.021 C 4.09,1.017 4.116,1 4.189,1 5.332,1.002 6.475,1.002 7.619,1 a 0.113,0.113 0 0 1 0.076,0.017 0.107,0.107 0 0 1 0.045,0.061 18266.184,18266.184 0 0 0 3.92,9.51 c 0.218,0.53 0.438,1.059 0.654,1.59 0.026,0.064 0.053,0.076 0.12,0.056 0.6,-0.178 1.2,-0.352 1.8,-0.531 0.075,-0.023 0.102,-0.008 0.126,0.064 0.204,0.62 0.412,1.239 0.62,1.858 L 15,13.698 c -0.043,0.015 -0.083,0.032 -0.124,0.043 l -4.085,1.25 c -0.065,0.02 -0.085,0 -0.106,-0.054 L 9.435,11.889 8.209,8.905 8.026,8.456 C 8.016,8.43 8.003,8.408 7.983,8.369 Z"
     id="path1-6" />
</g>
<g
   id="SVGRepo_bgCarrier-2"
   stroke-width="0"
   transform="translate(582.05119,241.00001)" />
<g
   id="SVGRepo_tracerCarrier-9"
   stroke-linecap="round"
   stroke-linejoin="round"
   transform="translate(582.05119,241.00001)" />
<g
   id="SVGRepo_iconCarrier-1-0"
   transform="matrix(5.4779709,0,0,5.4779709,217.1353,282.6053)">
  <path
     d="M 12,20 V 17.6 M 12,6.4 V 4 m 8,8 H 17.6 M 6.4,12 H 4"
     stroke="#e5a50a"
     stroke-width="1.5"
     stroke-linecap="round"
     id="path1-2-6" />
  <path
     opacity="0.5"
     d="m 17.6569,6.34277 -1.697,1.69706 M 8.04029,15.9594 6.34323,17.6565 M 6.34302,6.34295 8.04007,8.04001 m 7.91963,7.91959 1.697,1.6971"
     stroke="#e5a50a"
     stroke-width="1.5"
     stroke-linecap="round"
     id="path2-7-2" />
</g>
<g
   id="SVGRepo_iconCarrier-1-9"
   transform="matrix(5.4779709,0,0,5.4779709,404.75106,163.25102)">
  <path
     d="M 12,20 V 17.6 M 12,6.4 V 4 m 8,8 H 17.6 M 6.4,12 H 4"
     stroke="#e5a50a"
     stroke-width="1.5"
     stroke-linecap="round"
     id="path1-2-2" />
  <path
     opacity="0.5"
     d="m 17.6569,6.34277 -1.697,1.69706 M 8.04029,15.9594 6.34323,17.6565 M 6.34302,6.34295 8.04007,8.04001 m 7.91963,7.91959 1.697,1.6971"
     stroke="#e5a50a"
     stroke-width="1.5"
     stroke-linecap="round"
     id="path2-7-0" />
</g>
<g
   id="SVGRepo_iconCarrier-1-2"
   transform="matrix(5.4779709,0,0,5.4779709,270.70488,518.68212)">
  <path
     d="M 12,20 V 17.6 M 12,6.4 V 4 m 8,8 H 17.6 M 6.4,12 H 4"
     stroke="#e5a50a"
     stroke-width="1.5"
     stroke-linecap="round"
     id="path1-2-28" />
  <path
     opacity="0.5"
     d="m 17.6569,6.34277 -1.697,1.69706 M 8.04029,15.9594 6.34323,17.6565 M 6.34302,6.34295 8.04007,8.04001 m 7.91963,7.91959 1.697,1.6971"
     stroke="#e5a50a"
     stroke-width="1.5"
     stroke-linecap="round"
     id="path2-7-9" />
</g>
<g
   id="SVGRepo_iconCarrier-1-93"
   transform="matrix(5.4779709,0,0,5.4779709,460.66746,351.84008)">
  <path
     d="M 12,20 V 17.6 M 12,6.4 V 4 m 8,8 H 17.6 M 6.4,12 H 4"
     stroke="#e5a50a"
     stroke-width="1.5"
     stroke-linecap="round"
     id="path1-2-1" />
  <path
     opacity="0.5"
     d="m 17.6569,6.34277 -1.697,1.69706 M 8.04029,15.9594 6.34323,17.6565 M 6.34302,6.34295 8.04007,8.04001 m 7.91963,7.91959 1.697,1.6971"
     stroke="#e5a50a"
     stroke-width="1.5"
     stroke-linecap="round"
     id="path2-7-94" />
</g>
<g
   id="SVGRepo_iconCarrier-1-93-3"
   transform="matrix(5.4779709,0,0,5.4779709,528.41193,175.62405)">
  <path
     d="M 12,20 V 17.6 M 12,6.4 V 4 m 8,8 H 17.6 M 6.4,12 H 4"
     stroke="#e5a50a"
     stroke-width="1.5"
     stroke-linecap="round"
     id="path1-2-1-6" />
  <path
     opacity="0.5"
     d="m 17.6569,6.34277 -1.697,1.69706 M 8.04029,15.9594 6.34323,17.6565 M 6.34302,6.34295 8.04007,8.04001 m 7.91963,7.91959 1.697,1.6971"
     stroke="#e5a50a"
     stroke-width="1.5"
     stroke-linecap="round"
     id="path2-7-94-1" />
</g>
<g
   id="SVGRepo_iconCarrier-1"
   transform="matrix(5.4779709,0,0,5.4779709,103.19658,436.64246)">
  <path
     d="M 12,20 V 17.6 M 12,6.4 V 4 m 8,8 H 17.6 M 6.4,12 H 4"
     stroke="#e5a50a"
     stroke-width="1.5"
     stroke-linecap="round"
     id="path1-2" />
  <path
     opacity="0.5"
     d="m 17.6569,6.34277 -1.697,1.69706 M 8.04029,15.9594 6.34323,17.6565 M 6.34302,6.34295 8.04007,8.04001 m 7.91963,7.91959 1.697,1.6971"
     stroke="#e5a50a"
     stroke-width="1.5"
     stroke-linecap="round"
     id="path2-7" />
</g>
</g>
  </g>
</svg>
